<?xml version="1.0" encoding="iso-8859-1"?>
<!-- Generator: Adobe Illustrator 19.0.0, SVG Export Plug-In . SVG Version: 6.00 Build 0)  -->
<svg version="1.1" id="Layer_1" xmlns="http://www.w3.org/2000/svg" xmlns:xlink="http://www.w3.org/1999/xlink" x="0px" y="0px"
	 viewBox="0 0 512 512" style="enable-background:new 0 0 512 512;" xml:space="preserve">
<path style="fill:#C4CFE3;" d="M503.172,406.069H476.69V211.862l30.14,30.14c3.311,3.311,5.171,7.801,5.171,12.484v142.755
	C512,402.116,508.047,406.069,503.172,406.069z"/>
<path style="fill:#E1EAF6;" d="M476.69,423.724H17.655C7.904,423.724,0,415.82,0,406.069V105.931
	c0-9.751,7.904-17.655,17.655-17.655H476.69c9.751,0,17.655,7.904,17.655,17.655v300.138
	C494.345,415.82,486.441,423.724,476.69,423.724z"/>
<path style="fill:#D4DEED;" d="M308.966,406.069H26.483c-4.875,0-8.828-3.953-8.828-8.828V114.759c0-4.875,3.953-8.828,8.828-8.828
	h282.483c4.875,0,8.828,3.953,8.828,8.828v282.483C317.793,402.116,313.841,406.069,308.966,406.069z"/>
<circle style="fill:#5A5D6F;" cx="167.724" cy="256" r="123.586"/>
<g>
	<path style="fill:#6F7588;" d="M190.238,256.455L227.329,224c12.814-11.212,13.471-30.925,1.431-42.966l-0.018-0.018
		c-4.394-4.394-11.588-4.154-15.681,0.522l-45.613,52.128L190.238,256.455z"/>
	<path style="fill:#6F7588;" d="M143.75,255.545L106.658,288c-12.814,11.212-13.471,30.925-1.43,42.966l0.018,0.018
		c4.394,4.394,11.588,4.155,15.681-0.522l45.612-52.128L143.75,255.545z"/>
	<path style="fill:#6F7588;" d="M241.455,302.067l-52.128-45.612l-22.788,22.788l32.456,37.091
		c11.212,12.814,30.925,13.471,42.966,1.431l0.018-0.019C246.371,313.354,246.132,306.159,241.455,302.067z"/>
	<path style="fill:#6F7588;" d="M167.448,232.757l-32.456-37.091c-11.212-12.814-30.925-13.471-42.966-1.431l-0.018,0.019
		c-4.394,4.394-4.154,11.588,0.522,15.68l52.128,45.612L167.448,232.757z"/>
</g>
<circle style="fill:#929CB4;" cx="167.724" cy="256" r="30.897"/>
<g>
	<path style="fill:#E1EAF6;" d="M291.31,141.241H44.138c-4.875,0-8.828-3.953-8.828-8.828l0,0c0-4.875,3.953-8.828,8.828-8.828
		H291.31c4.875,0,8.828,3.953,8.828,8.828l0,0C300.138,137.289,296.185,141.241,291.31,141.241z"/>
	<path style="fill:#E1EAF6;" d="M291.31,176.552H44.138c-4.875,0-8.828-3.953-8.828-8.828l0,0c0-4.875,3.953-8.828,8.828-8.828
		H291.31c4.875,0,8.828,3.953,8.828,8.828l0,0C300.138,172.599,296.185,176.552,291.31,176.552z"/>
	<path style="fill:#E1EAF6;" d="M291.31,211.862H44.138c-4.875,0-8.828-3.953-8.828-8.828l0,0c0-4.875,3.953-8.828,8.828-8.828
		H291.31c4.875,0,8.828,3.953,8.828,8.828l0,0C300.138,207.91,296.185,211.862,291.31,211.862z"/>
	<path style="fill:#E1EAF6;" d="M291.31,247.172H44.138c-4.875,0-8.828-3.953-8.828-8.828l0,0c0-4.875,3.953-8.828,8.828-8.828
		H291.31c4.875,0,8.828,3.953,8.828,8.828l0,0C300.138,243.22,296.185,247.172,291.31,247.172z"/>
	<path style="fill:#E1EAF6;" d="M291.31,282.483H44.138c-4.875,0-8.828-3.953-8.828-8.828l0,0c0-4.875,3.953-8.828,8.828-8.828
		H291.31c4.875,0,8.828,3.953,8.828,8.828l0,0C300.138,278.53,296.185,282.483,291.31,282.483z"/>
	<path style="fill:#E1EAF6;" d="M291.31,317.793H44.138c-4.875,0-8.828-3.953-8.828-8.828l0,0c0-4.875,3.953-8.828,8.828-8.828
		H291.31c4.875,0,8.828,3.953,8.828,8.828l0,0C300.138,313.841,296.185,317.793,291.31,317.793z"/>
	<path style="fill:#E1EAF6;" d="M291.31,353.103H44.138c-4.875,0-8.828-3.953-8.828-8.828l0,0c0-4.875,3.953-8.828,8.828-8.828
		H291.31c4.875,0,8.828,3.953,8.828,8.828l0,0C300.138,349.151,296.185,353.103,291.31,353.103z"/>
	<path style="fill:#E1EAF6;" d="M291.31,388.414H44.138c-4.875,0-8.828-3.953-8.828-8.828l0,0c0-4.875,3.953-8.828,8.828-8.828
		H291.31c4.875,0,8.828,3.953,8.828,8.828l0,0C300.138,384.461,296.185,388.414,291.31,388.414z"/>
</g>
<g>
	<path style="fill:#C4CFE3;" d="M44.138,141.241L44.138,141.241c-4.855,0-8.828-3.972-8.828-8.828l0,0
		c0-4.855,3.972-8.828,8.828-8.828l0,0c4.855,0,8.828,3.972,8.828,8.828l0,0C52.966,137.269,48.993,141.241,44.138,141.241z"/>
	<path style="fill:#C4CFE3;" d="M291.31,141.241L291.31,141.241c-4.855,0-8.828-3.972-8.828-8.828l0,0
		c0-4.855,3.972-8.828,8.828-8.828l0,0c4.855,0,8.828,3.972,8.828,8.828l0,0C300.138,137.269,296.165,141.241,291.31,141.241z"/>
	<path style="fill:#C4CFE3;" d="M44.138,388.414L44.138,388.414c-4.855,0-8.828-3.972-8.828-8.828l0,0
		c0-4.855,3.972-8.828,8.828-8.828l0,0c4.855,0,8.828,3.972,8.828,8.828l0,0C52.966,384.441,48.993,388.414,44.138,388.414z"/>
	<path style="fill:#C4CFE3;" d="M291.31,388.414L291.31,388.414c-4.855,0-8.828-3.972-8.828-8.828l0,0
		c0-4.855,3.972-8.828,8.828-8.828l0,0c4.855,0,8.828,3.972,8.828,8.828l0,0C300.138,384.441,296.165,388.414,291.31,388.414z"/>
</g>
<path style="fill:#D4DEED;" d="M467.862,194.207H344.276c-4.875,0-8.828-3.953-8.828-8.828v-70.621c0-4.875,3.953-8.828,8.828-8.828
	h123.586c4.875,0,8.828,3.953,8.828,8.828v70.621C476.69,190.254,472.737,194.207,467.862,194.207z"/>
<g>
</g>
<g>
</g>
<g>
</g>
<g>
</g>
<g>
</g>
<g>
</g>
<g>
</g>
<g>
</g>
<g>
</g>
<g>
</g>
<g>
</g>
<g>
</g>
<g>
</g>
<g>
</g>
<g>
</g>
</svg>
