<?xml version="1.0" encoding="iso-8859-1"?>
<!-- Generator: Adobe Illustrator 19.0.0, SVG Export Plug-In . SVG Version: 6.00 Build 0)  -->
<svg version="1.1" id="Layer_1" xmlns="http://www.w3.org/2000/svg" xmlns:xlink="http://www.w3.org/1999/xlink" x="0px" y="0px"
	 viewBox="0 0 512 512" style="enable-background:new 0 0 512 512;" xml:space="preserve">
<path style="fill:#D4DEED;" d="M485.517,432.552H26.483C11.857,432.552,0,420.695,0,406.069V105.931
	c0-14.626,11.857-26.483,26.483-26.483h459.034c14.626,0,26.483,11.857,26.483,26.483v300.138
	C512,420.695,500.143,432.552,485.517,432.552z"/>
<g>
	<circle style="fill:#B6BFD5;" cx="35.31" cy="114.759" r="17.655"/>
	<circle style="fill:#B6BFD5;" cx="35.31" cy="397.241" r="17.655"/>
	<circle style="fill:#B6BFD5;" cx="476.69" cy="114.759" r="17.655"/>
	<circle style="fill:#B6BFD5;" cx="476.69" cy="397.241" r="17.655"/>
</g>
<path style="fill:#C4CFE3;" d="M512,361.931h-26.483c-4.875,0-8.828-3.953-8.828-8.828V158.897c0-4.875,3.953-8.828,8.828-8.828H512
	V361.931z"/>
<path style="fill:#6F7588;" d="M437.187,244.458l21.01,8.404c2.833,1.133,2.833,5.143,0,6.276l-21.01,8.404
	c-2.22,0.888-4.636-0.747-4.636-3.138v-16.808C432.552,245.205,434.967,243.57,437.187,244.458z"/>
<path style="fill:#C4CFE3;" d="M335.448,291.31H176.552c-19.501,0-35.31-15.809-35.31-35.31l0,0c0-19.501,15.809-35.31,35.31-35.31
	h158.897c19.501,0,35.31,15.809,35.31,35.31l0,0C370.759,275.501,354.95,291.31,335.448,291.31z"/>
<g>
</g>
<g>
</g>
<g>
</g>
<g>
</g>
<g>
</g>
<g>
</g>
<g>
</g>
<g>
</g>
<g>
</g>
<g>
</g>
<g>
</g>
<g>
</g>
<g>
</g>
<g>
</g>
<g>
</g>
</svg>
